<svg width="25" height="25" viewBox="0 0 25 25" fill="none" xmlns="http://www.w3.org/2000/svg">
<g clip-path="url(#clip0_11_383)">
<path d="M22.6562 13.6719H3.90625V4.88282C3.90534 4.55183 3.9701 4.22395 4.09677 3.91816C4.22343 3.61236 4.4095 3.33473 4.64419 3.10133L4.66372 3.0818C5.03152 2.71453 5.50375 2.46978 6.01587 2.38097C6.528 2.29216 7.05506 2.36363 7.52505 2.58561C7.08119 3.32359 6.8967 4.18875 7.0009 5.0436C7.10509 5.89846 7.49201 6.69397 8.10015 7.30372L8.63486 7.83844L7.65063 8.82271L8.75542 9.9275L9.73965 8.94327L15.1932 3.4898L16.1774 2.50558L15.0726 1.40074L14.0883 2.38497L13.5536 1.85025C12.9134 1.21184 12.0695 0.8183 11.1689 0.738209C10.2684 0.658119 9.36826 0.896557 8.62544 1.41197C7.84215 0.917302 6.9139 0.703748 5.99319 0.806395C5.07248 0.909041 4.21405 1.32178 3.55894 1.97682L3.5394 1.99635C3.15915 2.37452 2.85768 2.82436 2.65245 3.31982C2.44721 3.81528 2.34229 4.34654 2.34375 4.88282V13.6719H0.78125V15.2344H2.34375V16.7334C2.34372 16.8594 2.36403 16.9845 2.40391 17.104L3.85742 21.4643C3.93499 21.6978 4.08414 21.9008 4.28369 22.0447C4.48325 22.1885 4.72305 22.2658 4.96904 22.2656H5.59893L5.0293 24.2188H6.65688L7.22656 22.2656H17.3877L17.9736 24.2188H19.6045L19.0186 22.2656H20.0308C20.2768 22.2659 20.5166 22.1886 20.7162 22.0447C20.9158 21.9009 21.065 21.6978 21.1426 21.4643L22.596 17.104C22.6359 16.9845 22.6562 16.8594 22.6562 16.7334V15.2344H24.2188V13.6719H22.6562ZM9.20508 2.95509C9.63554 2.52556 10.2188 2.28433 10.8269 2.28433C11.435 2.28433 12.0183 2.52556 12.4488 2.95509L12.9834 3.4898L9.73979 6.73341L9.20508 6.19879C8.77557 5.76831 8.53436 5.18504 8.53436 4.57694C8.53436 3.96884 8.77557 3.38557 9.20508 2.95509ZM21.0938 16.6699L19.7494 20.7031H5.25059L3.90625 16.6699V15.2344H21.0938V16.6699Z" fill="#505050"/>
</g>
<defs>
<clipPath id="clip0_11_383">
<rect width="25" height="25" fill="white"/>
</clipPath>
</defs>
</svg>
