<svg width="25" height="25" viewBox="0 0 25 25" fill="none" xmlns="http://www.w3.org/2000/svg">
<path d="M14.5833 9.37504H10.4167C10.1404 9.37504 9.87546 9.48479 9.68011 9.68014C9.48476 9.87549 9.37501 10.1404 9.37501 10.4167V14.5834C9.37501 14.8596 9.48476 15.1246 9.68011 15.3199C9.87546 15.5153 10.1404 15.625 10.4167 15.625H14.5833C14.8596 15.625 15.1246 15.5153 15.3199 15.3199C15.5153 15.1246 15.625 14.8596 15.625 14.5834V10.4167C15.625 10.1404 15.5153 9.87549 15.3199 9.68014C15.1246 9.48479 14.8596 9.37504 14.5833 9.37504ZM13.5417 13.5417H11.4583V11.4584H13.5417V13.5417ZM21.875 13.5417C22.1513 13.5417 22.4162 13.432 22.6116 13.2366C22.8069 13.0413 22.9167 12.7763 22.9167 12.5C22.9167 12.2238 22.8069 11.9588 22.6116 11.7635C22.4162 11.5681 22.1513 11.4584 21.875 11.4584H19.7917V9.37504H21.875C22.1513 9.37504 22.4162 9.26529 22.6116 9.06994C22.8069 8.87459 22.9167 8.60964 22.9167 8.33337C22.9167 8.05711 22.8069 7.79215 22.6116 7.5968C22.4162 7.40145 22.1513 7.29171 21.875 7.29171H19.6042C19.4486 6.85483 19.1978 6.45806 18.8699 6.13014C18.542 5.80223 18.1452 5.55141 17.7083 5.39587V3.12504C17.7083 2.84877 17.5986 2.58382 17.4032 2.38847C17.2079 2.19312 16.9429 2.08337 16.6667 2.08337C16.3904 2.08337 16.1255 2.19312 15.9301 2.38847C15.7348 2.58382 15.625 2.84877 15.625 3.12504V5.20837H13.5417V3.12504C13.5417 2.84877 13.4319 2.58382 13.2366 2.38847C13.0412 2.19312 12.7763 2.08337 12.5 2.08337C12.2237 2.08337 11.9588 2.19312 11.7634 2.38847C11.5681 2.58382 11.4583 2.84877 11.4583 3.12504V5.20837H9.37501V3.12504C9.37501 2.84877 9.26526 2.58382 9.06991 2.38847C8.87456 2.19312 8.60961 2.08337 8.33334 2.08337C8.05708 2.08337 7.79212 2.19312 7.59677 2.38847C7.40142 2.58382 7.29168 2.84877 7.29168 3.12504V5.39587C6.8548 5.55141 6.45802 5.80223 6.13011 6.13014C5.8022 6.45806 5.55138 6.85483 5.39584 7.29171H3.12501C2.84874 7.29171 2.58379 7.40145 2.38844 7.5968C2.19309 7.79215 2.08334 8.05711 2.08334 8.33337C2.08334 8.60964 2.19309 8.87459 2.38844 9.06994C2.58379 9.26529 2.84874 9.37504 3.12501 9.37504H5.20834V11.4584H3.12501C2.84874 11.4584 2.58379 11.5681 2.38844 11.7635C2.19309 11.9588 2.08334 12.2238 2.08334 12.5C2.08334 12.7763 2.19309 13.0413 2.38844 13.2366C2.58379 13.432 2.84874 13.5417 3.12501 13.5417H5.20834V15.625H3.12501C2.84874 15.625 2.58379 15.7348 2.38844 15.9301C2.19309 16.1255 2.08334 16.3904 2.08334 16.6667C2.08334 16.943 2.19309 17.2079 2.38844 17.4033C2.58379 17.5986 2.84874 17.7084 3.12501 17.7084H5.39584C5.55138 18.1452 5.8022 18.542 6.13011 18.8699C6.45802 19.1978 6.8548 19.4487 7.29168 19.6042V21.875C7.29168 22.1513 7.40142 22.4163 7.59677 22.6116C7.79212 22.807 8.05708 22.9167 8.33334 22.9167C8.60961 22.9167 8.87456 22.807 9.06991 22.6116C9.26526 22.4163 9.37501 22.1513 9.37501 21.875V19.7917H11.4583V21.875C11.4583 22.1513 11.5681 22.4163 11.7634 22.6116C11.9588 22.807 12.2237 22.9167 12.5 22.9167C12.7763 22.9167 13.0412 22.807 13.2366 22.6116C13.4319 22.4163 13.5417 22.1513 13.5417 21.875V19.7917H15.625V21.875C15.625 22.1513 15.7348 22.4163 15.9301 22.6116C16.1255 22.807 16.3904 22.9167 16.6667 22.9167C16.9429 22.9167 17.2079 22.807 17.4032 22.6116C17.5986 22.4163 17.7083 22.1513 17.7083 21.875V19.6042C18.1452 19.4487 18.542 19.1978 18.8699 18.8699C19.1978 18.542 19.4486 18.1452 19.6042 17.7084H21.875C22.1513 17.7084 22.4162 17.5986 22.6116 17.4033C22.8069 17.2079 22.9167 16.943 22.9167 16.6667C22.9167 16.3904 22.8069 16.1255 22.6116 15.9301C22.4162 15.7348 22.1513 15.625 21.875 15.625H19.7917V13.5417H21.875ZM17.7083 16.6667C17.7083 16.943 17.5986 17.2079 17.4032 17.4033C17.2079 17.5986 16.9429 17.7084 16.6667 17.7084H8.33334C8.05708 17.7084 7.79212 17.5986 7.59677 17.4033C7.40142 17.2079 7.29168 16.943 7.29168 16.6667V8.33337C7.29168 8.05711 7.40142 7.79215 7.59677 7.5968C7.79212 7.40145 8.05708 7.29171 8.33334 7.29171H16.6667C16.9429 7.29171 17.2079 7.40145 17.4032 7.5968C17.5986 7.79215 17.7083 8.05711 17.7083 8.33337V16.6667Z" fill="#737373"/>
</svg>
