<svg width="29" height="25" viewBox="0 0 29 25" fill="none" xmlns="http://www.w3.org/2000/svg">
<g clip-path="url(#clip0_11_402)">
<path d="M25.0043 2.39954H3.5757C2.57124 2.39954 1.72488 2.73436 1.03664 3.404C0.348395 4.07364 0.00427246 4.9293 0.00427246 5.97096V16.6852C0.00427246 17.3177 0.236787 17.8664 0.701817 18.3315C1.16685 18.7965 1.73418 19.029 2.40383 19.029H26.1761C26.8458 19.029 27.4131 18.7965 27.8782 18.3315C28.3432 17.8664 28.5757 17.3177 28.5757 16.6852V5.97096C28.5757 4.9293 28.2316 4.07364 27.5433 3.404C26.8551 2.73436 26.0087 2.39954 25.0043 2.39954ZM23.8324 16.6852V13.1138H22.6047V16.6852H21.4328V13.1138H20.261V16.6852H19.0333V13.1138H17.8614V16.6852H15.4619V13.1138C15.4619 12.2954 15.0712 11.8861 14.29 11.8861C13.5087 11.8861 13.1181 12.2954 13.1181 13.1138V16.6852H11.8904V13.1138H10.7186V16.6852H9.54668V13.1138H8.319V16.6852H7.14713V13.1138H5.97525V16.6852H4.74758V13.1138H3.5757V16.6852H2.40383V5.97096C2.40383 5.15251 2.79445 4.74329 3.5757 4.74329H25.0043C25.7855 4.74329 26.1761 5.15251 26.1761 5.97096V16.6852H23.8324ZM5.97525 5.97096H4.74758C3.96633 5.97096 3.5757 6.36159 3.5757 7.14284V10.7143C3.5757 11.4955 3.96633 11.8861 4.74758 11.8861H5.97525C6.7565 11.8861 7.14713 11.4955 7.14713 10.7143V7.14284C7.14713 6.36159 6.7565 5.97096 5.97525 5.97096ZM10.7186 5.97096H9.54668C8.72823 5.97096 8.319 6.36159 8.319 7.14284V10.7143C8.319 11.4955 8.72823 11.8861 9.54668 11.8861H10.7186C11.4998 11.8861 11.8904 11.4955 11.8904 10.7143V7.14284C11.8904 6.36159 11.4998 5.97096 10.7186 5.97096ZM19.0333 5.97096H17.8614C17.0802 5.97096 16.6895 6.36159 16.6895 7.14284V10.7143C16.6895 11.4955 17.0802 11.8861 17.8614 11.8861H19.0333C19.8517 11.8861 20.261 11.4955 20.261 10.7143V7.14284C20.261 6.36159 19.8517 5.97096 19.0333 5.97096ZM23.8324 5.97096H22.6047C21.8235 5.97096 21.4328 6.36159 21.4328 7.14284V10.7143C21.4328 11.4955 21.8235 11.8861 22.6047 11.8861H23.8324C24.6136 11.8861 25.0043 11.4955 25.0043 10.7143V7.14284C25.0043 6.36159 24.6136 5.97096 23.8324 5.97096Z" fill="#515151"/>
</g>
<defs>
<clipPath id="clip0_11_402">
<rect width="28.58" height="25" fill="white"/>
</clipPath>
</defs>
</svg>
