<svg width="22" height="20" viewBox="0 0 22 20" fill="none" xmlns="http://www.w3.org/2000/svg">
<path d="M18.6343 7.04165C17.6854 3.19165 14.0437 1.45831 10.8448 1.45831H10.8357C7.64583 1.45831 3.99506 3.18331 3.04622 7.03331C1.98895 11.3333 4.8445 14.975 7.42895 17.2666C8.34501 18.0843 9.56989 18.5415 10.8448 18.5416C12.0737 18.5416 13.3027 18.1166 14.2515 17.2666C16.836 14.975 19.6916 11.3416 18.6343 7.04165ZM10.8448 11.2166C10.471 11.2166 10.1008 11.1487 9.75546 11.0168C9.4101 10.8849 9.0963 10.6916 8.83198 10.4478C8.56766 10.204 8.35798 9.91467 8.21493 9.59619C8.07188 9.27771 7.99825 8.93637 7.99825 8.59165C7.99825 8.24693 8.07188 7.90558 8.21493 7.5871C8.35798 7.26862 8.56766 6.97925 8.83198 6.73549C9.0963 6.49174 9.4101 6.29838 9.75546 6.16646C10.1008 6.03454 10.471 5.96665 10.8448 5.96665C11.5997 5.96665 12.3237 6.24321 12.8576 6.73549C13.3914 7.22777 13.6913 7.89545 13.6913 8.59165C13.6913 9.28784 13.3914 9.95552 12.8576 10.4478C12.3237 10.9401 11.5997 11.2166 10.8448 11.2166Z" fill="#AFAFAF"/>
</svg>
