<svg width="25" height="25" viewBox="0 0 25 25" fill="none" xmlns="http://www.w3.org/2000/svg">
<path d="M7.29167 14.5833C9.02084 14.5833 10.4167 13.1875 10.4167 11.4583C10.4167 9.72915 9.02084 8.33331 7.29167 8.33331C5.5625 8.33331 4.16667 9.72915 4.16667 11.4583C4.16667 13.1875 5.5625 14.5833 7.29167 14.5833ZM7.29167 10.4166C7.86459 10.4166 8.33334 10.8854 8.33334 11.4583C8.33334 12.0312 7.86459 12.5 7.29167 12.5C6.71875 12.5 6.25 12.0312 6.25 11.4583C6.25 10.8854 6.71875 10.4166 7.29167 10.4166ZM19.7917 7.29165H11.4583V15.625H3.12501V5.20831H1.04167V20.8333H3.12501V17.7083H21.875V20.8333H23.9583V11.4583C23.9583 9.15623 22.0938 7.29165 19.7917 7.29165ZM21.875 15.625H13.5417V9.37498H19.7917C20.9375 9.37498 21.875 10.3125 21.875 11.4583V15.625Z" fill="#737373"/>
</svg>
