<svg width="19" height="19" viewBox="0 0 19 19" fill="none" xmlns="http://www.w3.org/2000/svg">
<path d="M3.16671 7.1251H4.75004V2.37511H6.33337L9.04087 7.1251H12.6667V2.37511H14.25V7.1251H15.8334V8.70843H14.25V10.2918H15.8334V11.8751H14.25V16.6251H12.6667L9.95128 11.8751H6.33337V16.6251H4.75004V11.8751H3.16671V10.2918H4.75004V8.70843H3.16671V7.1251ZM6.33337 7.1251H7.22795L6.33337 5.56552V7.1251ZM6.33337 8.70843V10.2918H9.04087L8.13837 8.70843H6.33337ZM12.6667 13.4584V11.8751H11.7563L12.6667 13.4584ZM9.94337 8.70843L10.8538 10.2918H12.6667V8.70843H9.94337Z" fill="#5C5CFF"/>
</svg>
