<svg width="108" height="20" viewBox="0 0 108 20" fill="none" xmlns="http://www.w3.org/2000/svg">
<path d="M4.78332 13.3334C4.87498 12.925 4.70832 12.3417 4.41665 12.05L2.39165 10.025C1.75832 9.39169 1.50832 8.71669 1.69165 8.13335C1.88332 7.55002 2.47498 7.15002 3.35832 7.00002L5.95832 6.56669C6.33332 6.50002 6.79165 6.16669 6.96665 5.82502L8.39998 2.95002C8.81665 2.12502 9.38332 1.66669 9.99998 1.66669C10.6167 1.66669 11.1833 2.12502 11.6 2.95002L13.0333 5.82502C13.1417 6.04169 13.3667 6.25002 13.6083 6.39169L4.63332 15.3667C4.51665 15.4834 4.31665 15.375 4.34998 15.2084L4.78332 13.3334ZM15.5833 12.0517C15.2833 12.3517 15.1167 12.9267 15.2167 13.335L15.7917 15.8434C16.0333 16.885 15.8833 17.6684 15.3667 18.0434C15.1472 18.1967 14.8843 18.2756 14.6167 18.2684C14.1917 18.2684 13.6917 18.11 13.1417 17.785L10.7 16.335C10.3167 16.11 9.68332 16.11 9.29998 16.335L6.85832 17.785C5.93332 18.3267 5.14165 18.4184 4.63332 18.0434C4.44165 17.9017 4.29998 17.71 4.20832 17.46L14.3417 7.32669C14.725 6.94335 15.2667 6.76835 15.7917 6.86002L16.6333 7.00169C17.5166 7.15169 18.1083 7.55169 18.3 8.13502C18.4833 8.71835 18.2333 9.39335 17.6 10.0267L15.5833 12.0517Z" fill="#FFBA09"/>
<path d="M26.7833 13.3334C26.875 12.925 26.7083 12.3417 26.4167 12.05L24.3917 10.025C23.7583 9.39169 23.5083 8.71669 23.6917 8.13335C23.8833 7.55002 24.475 7.15002 25.3583 7.00002L27.9583 6.56669C28.3333 6.50002 28.7917 6.16669 28.9667 5.82502L30.4 2.95002C30.8167 2.12502 31.3833 1.66669 32 1.66669C32.6167 1.66669 33.1833 2.12502 33.6 2.95002L35.0333 5.82502C35.1417 6.04169 35.3667 6.25002 35.6083 6.39169L26.6333 15.3667C26.5167 15.4834 26.3167 15.375 26.35 15.2084L26.7833 13.3334ZM37.5833 12.0517C37.2833 12.3517 37.1167 12.9267 37.2167 13.335L37.7917 15.8434C38.0333 16.885 37.8833 17.6684 37.3667 18.0434C37.1472 18.1967 36.8843 18.2756 36.6167 18.2684C36.1917 18.2684 35.6917 18.11 35.1417 17.785L32.7 16.335C32.3167 16.11 31.6833 16.11 31.3 16.335L28.8583 17.785C27.9333 18.3267 27.1417 18.4184 26.6333 18.0434C26.4417 17.9017 26.3 17.71 26.2083 17.46L36.3417 7.32669C36.725 6.94335 37.2667 6.76835 37.7917 6.86002L38.6333 7.00169C39.5166 7.15169 40.1083 7.55169 40.3 8.13502C40.4833 8.71835 40.2333 9.39335 39.6 10.0267L37.5833 12.0517Z" fill="#FFBA09"/>
<path d="M48.7834 13.3334C48.875 12.925 48.7084 12.3417 48.4167 12.05L46.3917 10.025C45.7584 9.39169 45.5084 8.71669 45.6917 8.13335C45.8834 7.55002 46.475 7.15002 47.3584 7.00002L49.9584 6.56669C50.3334 6.50002 50.7917 6.16669 50.9667 5.82502L52.4 2.95002C52.8167 2.12502 53.3834 1.66669 54 1.66669C54.6167 1.66669 55.1834 2.12502 55.6 2.95002L57.0334 5.82502C57.1417 6.04169 57.3667 6.25002 57.6084 6.39169L48.6334 15.3667C48.5167 15.4834 48.3167 15.375 48.35 15.2084L48.7834 13.3334ZM59.5834 12.0517C59.2834 12.3517 59.1167 12.9267 59.2167 13.335L59.7917 15.8434C60.0334 16.885 59.8834 17.6684 59.3667 18.0434C59.1473 18.1967 58.8844 18.2756 58.6167 18.2684C58.1917 18.2684 57.6917 18.11 57.1417 17.785L54.7 16.335C54.3167 16.11 53.6834 16.11 53.3 16.335L50.8584 17.785C49.9334 18.3267 49.1417 18.4184 48.6334 18.0434C48.4417 17.9017 48.3 17.71 48.2084 17.46L58.3417 7.32669C58.725 6.94335 59.2667 6.76835 59.7917 6.86002L60.6334 7.00169C61.5167 7.15169 62.1084 7.55169 62.3 8.13502C62.4834 8.71835 62.2334 9.39335 61.6 10.0267L59.5834 12.0517Z" fill="#FFBA09"/>
<path d="M70.7834 13.3334C70.875 12.925 70.7084 12.3417 70.4167 12.05L68.3917 10.025C67.7584 9.39169 67.5084 8.71669 67.6917 8.13335C67.8834 7.55002 68.475 7.15002 69.3584 7.00002L71.9584 6.56669C72.3334 6.50002 72.7917 6.16669 72.9667 5.82502L74.4 2.95002C74.8167 2.12502 75.3834 1.66669 76 1.66669C76.6167 1.66669 77.1834 2.12502 77.6 2.95002L79.0334 5.82502C79.1417 6.04169 79.3667 6.25002 79.6084 6.39169L70.6334 15.3667C70.5167 15.4834 70.3167 15.375 70.35 15.2084L70.7834 13.3334ZM81.5834 12.0517C81.2834 12.3517 81.1167 12.9267 81.2167 13.335L81.7917 15.8434C82.0334 16.885 81.8834 17.6684 81.3667 18.0434C81.1473 18.1967 80.8844 18.2756 80.6167 18.2684C80.1917 18.2684 79.6917 18.11 79.1417 17.785L76.7 16.335C76.3167 16.11 75.6834 16.11 75.3 16.335L72.8584 17.785C71.9334 18.3267 71.1417 18.4184 70.6334 18.0434C70.4417 17.9017 70.3 17.71 70.2084 17.46L80.3417 7.32669C80.725 6.94335 81.2667 6.76835 81.7917 6.86002L82.6334 7.00169C83.5167 7.15169 84.1084 7.55169 84.3 8.13502C84.4834 8.71835 84.2334 9.39335 83.6 10.0267L81.5834 12.0517Z" fill="#FFBA09"/>
<path d="M92.7834 13.3334C92.875 12.925 92.7084 12.3417 92.4167 12.05L90.3917 10.025C89.7584 9.39169 89.5084 8.71669 89.6917 8.13335C89.8834 7.55002 90.475 7.15002 91.3584 7.00002L93.9584 6.56669C94.3334 6.50002 94.7917 6.16669 94.9667 5.82502L96.4 2.95002C96.8167 2.12502 97.3834 1.66669 98 1.66669C98.6167 1.66669 99.1834 2.12502 99.6 2.95002L101.033 5.82502C101.142 6.04169 101.367 6.25002 101.608 6.39169L92.6334 15.3667C92.5167 15.4834 92.3167 15.375 92.35 15.2084L92.7834 13.3334ZM103.583 12.0517C103.283 12.3517 103.117 12.9267 103.217 13.335L103.792 15.8434C104.033 16.885 103.883 17.6684 103.367 18.0434C103.147 18.1967 102.884 18.2756 102.617 18.2684C102.192 18.2684 101.692 18.11 101.142 17.785L98.7 16.335C98.3167 16.11 97.6834 16.11 97.3 16.335L94.8584 17.785C93.9334 18.3267 93.1417 18.4184 92.6334 18.0434C92.4417 17.9017 92.3 17.71 92.2084 17.46L102.342 7.32669C102.725 6.94335 103.267 6.76835 103.792 6.86002L104.633 7.00169C105.517 7.15169 106.108 7.55169 106.3 8.13502C106.483 8.71835 106.233 9.39335 105.6 10.0267L103.583 12.0517Z" fill="#FFBA09"/>
</svg>
