<svg width="25" height="25" viewBox="0 0 25 25" fill="none" xmlns="http://www.w3.org/2000/svg">
<path d="M7.37501 16.7687C7.00001 16.7687 6.62501 16.675 6.28126 16.4771C5.94276 16.2898 5.66075 16.0151 5.46469 15.6816C5.26863 15.3481 5.16571 14.9681 5.16668 14.5812V10.8625C5.16668 10.5917 4.98959 10.1333 4.77084 9.87291L2.14584 7.1125C1.65626 6.63333 1.30209 5.8 1.30209 5.16458V3.55C1.30209 2.28958 2.26043 1.28958 3.48959 1.28958H12.7604C13.9688 1.28958 14.9479 2.26875 14.9479 3.47708V5.01875C14.9479 5.83125 14.4792 6.72708 14.0208 7.18541L10.9688 9.88333C10.7292 10.0812 10.5313 10.5604 10.5313 10.9146V13.9354C10.5313 14.6542 10.0938 15.4562 9.52084 15.8L8.56251 16.425C8.18751 16.6542 7.78126 16.7687 7.37501 16.7687ZM3.48959 2.8625C3.13543 2.8625 2.86459 3.16458 2.86459 3.56041V5.175C2.86459 5.35208 3.04168 5.8 3.27084 6.02916L5.95834 8.85208C6.35418 9.34166 6.73959 10.1437 6.73959 10.8625V14.5812C6.73959 14.8937 6.93751 15.05 7.06251 15.1125C7.22918 15.2062 7.50001 15.2583 7.72918 15.1125L8.69793 14.4875C8.82293 14.4146 8.96876 14.1229 8.96876 13.9458V10.925C8.96876 10.1021 9.37501 9.19583 9.94793 8.70625L12.9479 6.05C13.1354 5.8625 13.3854 5.35208 13.3854 5.01875V3.47708C13.3854 3.13333 13.1042 2.85208 12.7604 2.85208H3.48959V2.8625Z" fill="white"/>
<path d="M15.625 23.6969H9.37501C3.71876 23.6969 1.30209 21.2802 1.30209 15.624V12.499C1.30209 12.0719 1.65626 11.7177 2.08334 11.7177C2.51043 11.7177 2.86459 12.0719 2.86459 12.499V15.624C2.86459 20.4261 4.57293 22.1344 9.37501 22.1344H15.625C20.4271 22.1344 22.1354 20.4261 22.1354 15.624V9.37397C22.1354 6.35314 21.4271 4.60314 19.8333 3.69689C19.6667 3.60314 19.1146 3.35314 17.5313 3.10314C17.4296 3.08773 17.332 3.05218 17.2442 2.99857C17.1564 2.94497 17.0802 2.87438 17.0201 2.79095C16.9599 2.70752 16.917 2.61292 16.8939 2.5127C16.8708 2.41248 16.8679 2.30865 16.8854 2.2073C16.9583 1.78022 17.3646 1.48855 17.7813 1.56147C19.1458 1.78022 20.0729 2.03022 20.6042 2.3323C22.7083 3.53022 23.6979 5.7698 23.6979 9.37397V15.624C23.6979 21.2802 21.2813 23.6969 15.625 23.6969Z" fill="white"/>
<path d="M18.75 14.3229H13.5417C13.1146 14.3229 12.7604 13.9687 12.7604 13.5417C12.7604 13.1146 13.1146 12.7604 13.5417 12.7604H18.75C19.1771 12.7604 19.5313 13.1146 19.5313 13.5417C19.5313 13.9687 19.1771 14.3229 18.75 14.3229ZM18.75 18.4896H11.4583C11.0313 18.4896 10.6771 18.1354 10.6771 17.7083C10.6771 17.2812 11.0313 16.9271 11.4583 16.9271H18.75C19.1771 16.9271 19.5313 17.2812 19.5313 17.7083C19.5313 18.1354 19.1771 18.4896 18.75 18.4896Z" fill="white"/>
</svg>
