<svg width="35" height="35" viewBox="0 0 35 35" fill="none" xmlns="http://www.w3.org/2000/svg">
<path opacity="0.4" d="M17.7319 15.8521C17.5861 15.8375 17.4111 15.8375 17.2506 15.8521C15.5768 15.7953 13.9907 15.0892 12.8284 13.8833C11.6661 12.6774 11.0188 11.0665 11.0236 9.3917C11.0236 5.81879 13.9111 2.9167 17.4986 2.9167C19.2139 2.88576 20.8713 3.5375 22.1061 4.72855C23.3409 5.91961 24.052 7.5524 24.0829 9.26774C24.1139 10.9831 23.4621 12.6405 22.2711 13.8753C21.08 15.1101 19.4472 15.8212 17.7319 15.8521V15.8521Z" stroke="#5C5CFF" stroke-width="1.5" stroke-linecap="round" stroke-linejoin="round"/>
<path d="M10.4402 21.2334C6.91104 23.5959 6.91104 27.4459 10.4402 29.7938C14.4506 32.4771 21.0277 32.4771 25.0381 29.7938C28.5673 27.4313 28.5673 23.5813 25.0381 21.2334C21.0423 18.5646 14.4652 18.5646 10.4402 21.2334V21.2334Z" stroke="#5C5CFF" stroke-width="1.5" stroke-linecap="round" stroke-linejoin="round"/>
</svg>
